<?xml version="1.0" encoding="UTF-8"?>
<svg version="1.1" xmlns="http://www.w3.org/2000/svg" width="48" height="48">
<path d="M0 0 C1.670625 0.061875 1.670625 0.061875 3.375 0.125 C3.375 1.115 3.375 2.105 3.375 3.125 C1.725 3.455 0.075 3.785 -1.625 4.125 C-1.955 5.445 -2.285 6.765 -2.625 8.125 C7.935 8.125 18.495 8.125 29.375 8.125 C28.88 6.145 28.88 6.145 28.375 4.125 C20.785 3.795 13.195 3.465 5.375 3.125 C5.375 2.135 5.375 1.145 5.375 0.125 C9.49994151 0.06715292 13.62477944 0.03145593 17.75 0 C18.925625 -0.01675781 20.10125 -0.03351562 21.3125 -0.05078125 C22.99472656 -0.06044922 22.99472656 -0.06044922 24.7109375 -0.0703125 C25.74782715 -0.08078613 26.7847168 -0.09125977 27.85302734 -0.10205078 C30.375 0.125 30.375 0.125 32.375 2.125 C32.63378906 5.2578125 32.63378906 5.2578125 32.640625 9.25 C32.64349518 10.30405029 32.64349518 10.30405029 32.64642334 11.37939453 C32.64778475 12.86556354 32.64409132 14.35174445 32.63574219 15.83789062 C32.62504154 18.11615646 32.63563839 20.39363377 32.6484375 22.671875 C32.6471159 24.11458508 32.64455349 25.55729466 32.640625 27 C32.63836914 28.31742188 32.63611328 29.63484375 32.63378906 30.9921875 C32.375 34.125 32.375 34.125 30.375 36.125 C28.2109375 36.3203125 28.2109375 36.3203125 25.75 36.25 C24.93273437 36.23195312 24.11546875 36.21390625 23.2734375 36.1953125 C22.64695312 36.17210937 22.02046875 36.14890625 21.375 36.125 C21.375 35.135 21.375 34.145 21.375 33.125 C24.84 32.63 24.84 32.63 28.375 32.125 C28.705 25.195 29.035 18.265 29.375 11.125 C18.815 11.125 8.255 11.125 -2.625 11.125 C-2.295 18.055 -1.965 24.985 -1.625 32.125 C5.305 32.455 12.235 32.785 19.375 33.125 C19.375 34.115 19.375 35.105 19.375 36.125 C15.58339703 36.18286668 11.79190689 36.21855054 8 36.25 C6.91976563 36.26675781 5.83953125 36.28351562 4.7265625 36.30078125 C3.6953125 36.30722656 2.6640625 36.31367187 1.6015625 36.3203125 C0.17191162 36.33602295 0.17191162 36.33602295 -1.28662109 36.35205078 C-3.625 36.125 -3.625 36.125 -5.625 34.125 C-5.88378906 30.9921875 -5.88378906 30.9921875 -5.890625 27 C-5.89253845 26.2972998 -5.8944519 25.59459961 -5.89642334 24.87060547 C-5.89778475 23.38443646 -5.89409132 21.89825555 -5.88574219 20.41210938 C-5.87504154 18.13384354 -5.88563839 15.85636623 -5.8984375 13.578125 C-5.8971159 12.13541492 -5.89455349 10.69270534 -5.890625 9.25 C-5.88836914 7.93257812 -5.88611328 6.61515625 -5.88378906 5.2578125 C-5.50108536 0.62493145 -4.61540922 0.15915204 0 0 Z " fill="#ffffff" transform="translate(10.625,5.875)"/>
<path d="M0 0 C0.99 0 1.98 0 3 0 C2.63287028 2.71675995 2.27255401 4.61063713 0.6875 6.875 C-1 8 -1 8 -3.1875 7.6875 C-3.785625 7.460625 -4.38375 7.23375 -5 7 C-5.33 5.35 -5.66 3.7 -6 2 C-4.7934375 1.7834375 -4.7934375 1.7834375 -3.5625 1.5625 C-1.07896294 1.25864751 -1.07896294 1.25864751 0 0 Z " fill="#ffffff" transform="translate(34,27)"/>
<path d="M0 0 C-0.75 4.75 -0.75 4.75 -3 7 C-5.625 7.125 -5.625 7.125 -8 7 C-8.33 5.35 -8.66 3.7 -9 2 C-5.62902617 0.50178941 -3.79557881 0 0 0 Z " fill="#ffffff" transform="translate(37,19)"/>
<path d="M0 0 C4.95 0 9.9 0 15 0 C15 0.99 15 1.98 15 3 C10.05 3 5.1 3 0 3 C0 2.01 0 1.02 0 0 Z " fill="#ffffff" transform="translate(11,30)"/>
<path d="M0 0 C4.95 0 9.9 0 15 0 C15 0.99 15 1.98 15 3 C10.05 3 5.1 3 0 3 C0 2.01 0 1.02 0 0 Z " fill="#ffffff" transform="translate(11,21)"/>
</svg>
